<svg xmlns="http://www.w3.org/2000/svg" width="256" height="256" viewBox="0 0 100 100"><rect width="100" height="100" rx="20" fill="#d9e5f6"></rect><path fill="#253e5e" d="M35.29 38.33Q35.29 35.41 34.23 33.95Q33.17 32.49 31.89 31.71Q30.61 30.92 29.08 30.51Q27.55 30.09 26.03 30.09L26.03 30.09Q23.50 30.09 21.61 30.68Q19.72 31.26 18.47 32.25Q17.23 33.25 16.60 34.58Q15.97 35.91 15.97 37.37L15.97 37.37Q15.97 39.56 16.75 40.90Q17.53 42.25 18.72 43.06Q19.92 43.87 21.36 44.34Q22.81 44.80 24.13 45.27L24.13 45.27L30.84 47.46Q33.86 48.42 36.17 49.65Q38.48 50.88 40.04 52.56Q41.60 54.23 42.41 56.42Q43.23 58.62 43.23 61.50L43.23 61.50Q43.23 64.63 41.95 67.28Q40.67 69.94 38.38 71.90Q36.09 73.86 32.92 74.97Q29.75 76.08 25.96 76.08L25.96 76.08Q22.08 76.08 19.32 75.20Q16.56 74.32 14.69 72.84Q12.81 71.37 11.68 69.47Q10.55 67.58 9.92 65.59L9.92 65.59L7.40 65.59L7.40 59.88L15.77 59.88Q15.77 63.56 16.55 65.09Q17.33 66.62 18.72 67.63Q20.12 68.64 22.04 69.16Q23.97 69.67 26.29 69.67L26.29 69.67Q28.55 69.67 30.36 69.14Q32.17 68.61 33.45 67.60Q34.73 66.58 35.41 65.14Q36.09 63.70 36.09 61.87L36.09 61.87Q36.09 59.84 35.24 58.43Q34.39 57.02 33.07 56.03Q31.74 55.03 30.16 54.40Q28.58 53.77 27.12 53.30L27.12 53.30L19.85 51.25Q17.46 50.51 15.49 49.39Q13.51 48.26 12.10 46.63Q10.69 45.00 9.92 42.83Q9.16 40.65 9.16 37.80L9.16 37.80Q9.16 34.91 10.29 32.39Q11.42 29.86 13.61 27.97Q15.80 26.08 18.97 25.00Q22.14 23.92 26.23 23.92L26.23 23.92Q28.92 23.92 31.19 24.55Q33.46 25.18 35.31 26.33Q37.15 27.47 38.56 29.08Q39.97 30.69 40.94 32.62L40.94 32.62L43.43 32.62L43.43 38.33L35.29 38.33ZM49.67 30.39L49.67 24.65L68.39 24.65Q71.85 24.65 74.97 25.55Q78.09 26.44 80.78 28.07Q83.47 29.70 85.66 31.97Q87.85 34.25 89.40 37.03Q90.94 39.82 91.77 43.03Q92.60 46.23 92.60 49.68L92.60 49.68Q92.60 53.20 91.77 56.42Q90.94 59.65 89.40 62.47Q87.85 65.29 85.66 67.60Q83.47 69.91 80.78 71.55Q78.09 73.19 74.97 74.09Q71.85 74.99 68.39 74.99L68.39 74.99L49.67 74.99L49.67 69.27L54.45 69.27L54.45 30.39L49.67 30.39ZM68.79 30.39L60.96 30.39L60.96 69.27L68.79 69.27Q72.28 69.27 75.35 67.75Q78.42 66.22 80.71 63.58Q83.00 60.94 84.33 57.37Q85.66 53.80 85.66 49.68L85.66 49.68Q85.66 45.63 84.33 42.11Q83.00 38.59 80.71 35.99Q78.42 33.38 75.35 31.89Q72.28 30.39 68.79 30.39L68.79 30.39Z"></path></svg>